<?xml version="1.0" encoding="UTF-8"?>
<svg id="Layer_1" xmlns="http://www.w3.org/2000/svg" version="1.1" viewBox="0 0 128 26">
  <!-- Generator: Adobe Illustrator 29.2.1, SVG Export Plug-In . SVG Version: 2.1.0 Build 116)  -->
  <defs>
    <style>
      .st0 {
        fill: #000;
      }
    </style>
  </defs>
  <g>
    <path class="st0" d="M13,16.9v7.9h-5.3v-7.9c0-1.2,0-2.1.2-2.9.2-.7.4-1.4.9-2.1.7-1,1.5-1.8,2.6-2.4,1.1-.6,2.2-.8,3.5-.8s2.8.4,3.9,1.1c1.2.7,2,1.7,2.6,3,.3.5.4,1.1.5,1.7,0,.6.1,1.4.1,2.5v7.9h-5.3v-8.4c0-1.6-.6-2.4-1.9-2.4s-1.9.8-1.9,2.4v.5Z"/>
    <path class="st0" d="M55.5,24.8h-5.3v-8.2c0-.9,0-1.8.3-2.5.2-.8.4-1.5.8-2.1.4-.6.8-1.2,1.4-1.6,1.3-1.2,2.9-1.7,4.8-1.7s.4,0,.7,0v5.4c-.3-.1-.6-.2-.8-.2-.8,0-1.3.4-1.6,1.1-.1.3-.2.9-.2,1.9v7.8Z"/>
    <path class="st0" d="M59.1,16.2V3.8h5.3v12.4c0,1,.1,1.7.4,2.2.2.4.6.8,1,1,.4.2.9.4,1.4.4s1-.1,1.5-.4c.4-.3.8-.6,1-1.1.3-.4.4-.9.4-1.5s-.1-1-.4-1.5c-.3-.4-.6-.8-1.1-1-.5-.2-1-.4-1.5-.4s-1.1.1-1.8.4v-5.5c.6-.1,1.2-.2,1.7-.2,1.5,0,2.9.4,4.2,1.1,1.3.7,2.3,1.7,3,3,.7,1.3,1.1,2.6,1.1,4.1s-.4,2.9-1.1,4.1c-.7,1.3-1.7,2.3-3,3-1.2.7-2.6,1.1-4.1,1.1s-2.9-.4-4.1-1.1c-1.3-.7-2.3-1.7-3-3-.7-1.2-1.1-2.6-1.1-4.1v-.8Z"/>
    <path class="st0" d="M89.1,8.7h2.9v5.3h-2.9v3.5c0,.8.2,1.4.5,1.8.3.4.9.5,1.6.5s.3,0,.8,0v5.3c-.4,0-.8,0-1.1,0-.8,0-1.5-.1-2.2-.3-.7-.2-1.4-.5-2-1-.6-.4-1.1-.9-1.6-1.5-.4-.5-.7-1-.9-1.6-.2-.5-.3-1.1-.4-1.8,0-.7-.1-1.6-.1-2.6V3.8h5.3v4.9Z"/>
    <path class="st0" d="M79.4,10.1c-1,0-2-.4-2.7-1.1v15.8h5.4v-15.8c-.7.7-1.6,1.1-2.7,1.1"/>
    <path class="st0" d="M76.5,6.3c0-1.6,1.3-2.9,2.9-2.9s2.9,1.3,2.9,2.9-1.3,2.9-2.9,2.9-2.9-1.3-2.9-2.9"/>
    <path class="st0" d="M93.8,22.3c0-1.6,1.3-2.9,2.9-2.9s2.9,1.3,2.9,2.9-1.3,2.9-2.9,2.9-2.9-1.3-2.9-2.9"/>
    <path class="st0" d="M3,10.1c-1,0-2-.4-2.7-1.1v15.8h5.4v-15.8h0c-.7.7-1.6,1.1-2.7,1.1"/>
    <path class="st0" d="M0,6.3C0,4.7,1.4,3.4,3,3.4s2.9,1.3,2.9,2.9-1.3,2.9-2.9,2.9S0,7.9,0,6.3"/>
    <g>
      <path class="st0" d="M37.2,15.6c0-2,1.6-3.6,3.6-3.6s3.6,1.6,3.6,3.6-1.6,3.6-3.6,3.6-3.6-1.6-3.6-3.6"/>
      <path class="st0" d="M46.8,6.3c0-1.4,1.1-2.5,2.5-2.5s2.5,1.1,2.5,2.5-1.1,2.5-2.5,2.5-2.5-1.1-2.5-2.5"/>
      <path class="st0" d="M41.6,1.7c0-.8.7-1.5,1.5-1.5s1.5.7,1.5,1.5-.7,1.5-1.5,1.5-1.5-.7-1.5-1.5"/>
      <path class="st0" d="M49.4,9.5s0,0,0,0c-1.8,0-3.3-1.5-3.3-3.3s.2-1.2.5-1.7c-.6-.5-1.4-1-2.2-1.3-.4.3-.8.5-1.4.5-.9,0-1.6-.5-1.9-1.3-3.2-.2-7,.9-10.6,3.4-6.8,4.8-8.9,11.9-5.7,16.4,3.2,4.5,10.6,4.9,17.4.1,5.2-3.7,7.6-8.7,7-13M45.5,15.6c0,2.5-2.1,4.6-4.6,4.6s-2-.4-2.8-1c-4.1,1.9-7.7,1.2-9.5-1.2-2.1-2.9-.8-7.6,4.3-11.2,5.1-3.6,9.9-3.2,12-.3,1.3,1.8,1.3,4.3,0,6.8.4.7.6,1.5.6,2.3"/>
    </g>
  </g>
  <g>
    <path class="st0" d="M125,10.1c-1,0-2-.4-2.7-1.1v15.8h5.4v-15.8c-.7.7-1.6,1.1-2.7,1.1"/>
    <path class="st0" d="M122.1,6.3c0-1.6,1.3-2.9,2.9-2.9s2.9,1.3,2.9,2.9-1.3,2.9-2.9,2.9-2.9-1.3-2.9-2.9"/>
  </g>
  <polygon class="st0" points="113.5 3.8 108.7 3.8 101 24.8 106.4 24.8 107.7 20.9 108.9 16.9 111.1 9.7 113.4 16.9 109.9 16.9 108.7 20.9 114.6 20.9 115.8 24.8 121.3 24.8 113.5 3.8"/>
</svg>
